<svg width="1080" height="1080" viewBox="0 0 1080 1080" fill="none" xmlns="http://www.w3.org/2000/svg">
<rect width="1080" height="1080" fill="white"/>
<path d="M615.425 501C615.425 485.087 609.368 469.826 594.576 458.574C579.784 447.321 559.722 443 538.802 443C517.883 443 497.821 447.321 483.029 458.574C468.236 469.826 461.617 485.087 461.617 501H615.425Z" fill="#F1F2FA"/>
<path d="M461.617 544.5C461.617 567.176 469.927 588.923 484.719 604.958C499.511 620.992 519.573 638 540.493 638C561.412 638 581.474 620.992 596.266 604.958C611.058 588.923 619.368 567.176 619.368 544.5L461.617 544.5Z" fill="#F1F2FA"/>
<path d="M461.617 501H615.425L612.608 516.5L619.368 545H461.617L465.56 516.5L461.617 501Z" fill="#F1F2FA"/>
<path d="M607.526 520.967C608.586 518.304 612.827 518.297 613.897 520.957L620.436 537.204C620.521 537.415 620.632 537.617 620.767 537.806L634.468 556.914C635.815 558.793 634.466 561.274 631.97 561.508L611.027 563.469C610.806 563.49 610.584 563.491 610.364 563.473L588.311 561.681C585.277 561.434 584.13 558.032 586.513 556.347L595.409 550.058C595.905 549.708 596.279 549.241 596.49 548.71L607.526 520.967Z" fill="#F1F2FA"/>
<path d="M465.826 517.365C466.832 514.645 471.15 514.601 472.225 517.3L479.628 535.877C479.711 536.087 479.821 536.287 479.955 536.476L494.584 557.081C496.078 559.186 494.203 561.897 491.412 561.668L469.292 559.852C469.043 559.832 468.793 559.836 468.545 559.865L448.824 562.137C445.928 562.471 443.95 559.607 445.599 557.468L455.711 544.353C455.891 544.119 456.033 543.863 456.133 543.594L465.826 517.365Z" fill="#F1F2FA"/>
<path d="M488.66 579.72C488.66 582.636 482.858 585 475.702 585C468.545 585 462.743 582.636 462.743 579.72C462.743 576.804 469.108 573 476.265 573C483.422 573 488.66 576.804 488.66 579.72Z" fill="#F1F2FA"/>
<path d="M619.368 581.96C619.368 585.848 613.567 589 606.41 589C599.254 589 593.452 585.848 593.452 581.96C593.452 578.072 599.817 573 606.974 573C614.13 573 619.368 578.072 619.368 581.96Z" fill="#F1F2FA"/>
<path d="M489.787 588.333C489.787 591.279 483.985 595 476.828 595C469.672 595 463.87 591.279 463.87 588.333C463.87 585.388 469.672 583 476.828 583C483.985 583 489.787 585.388 489.787 588.333Z" fill="#F1F2FA"/>
<path d="M618.242 592.111C618.242 596.039 612.44 601 605.284 601C598.127 601 592.325 596.039 592.325 592.111C592.325 588.184 598.127 585 605.283 585C612.44 585 618.242 588.184 618.242 592.111Z" fill="#F1F2FA"/>
<path d="M618.242 519C618.242 524.523 613.197 529 606.974 529C600.751 529 595.706 524.523 595.706 519C595.706 513.477 600.751 509 606.974 509C613.197 509 618.242 513.477 618.242 519Z" fill="#F1F2FA"/>
<path d="M484.153 519C484.153 524.523 479.108 529 472.885 529C466.661 529 461.617 524.523 461.617 519C461.617 513.477 466.661 509 472.885 509C479.108 509 484.153 513.477 484.153 519Z" fill="#F1F2FA"/>
<path d="M615.425 501C615.425 485.087 609.368 469.826 594.576 458.574C579.784 447.321 559.722 443 538.802 443C517.883 443 497.821 447.321 483.029 458.574C468.236 469.826 461.617 485.087 461.617 501H615.425Z" fill="#F1F2FA"/>
<path d="M461.617 544.5C461.617 567.176 469.927 588.923 484.719 604.958C499.511 620.992 519.573 638 540.493 638C561.412 638 581.474 620.992 596.266 604.958C611.058 588.923 619.368 567.176 619.368 544.5L461.617 544.5Z" fill="#F1F2FA"/>
<path d="M461.617 501H615.425L612.608 516.5L619.368 545H461.617L465.56 516.5L461.617 501Z" fill="#F1F2FA"/>
<path d="M607.526 520.967C608.586 518.304 612.827 518.297 613.897 520.957L620.436 537.204C620.521 537.415 620.632 537.617 620.767 537.806L634.468 556.914C635.815 558.793 634.466 561.274 631.97 561.508L611.027 563.469C610.806 563.49 610.584 563.491 610.364 563.473L588.311 561.681C585.277 561.434 584.13 558.032 586.513 556.347L595.409 550.058C595.905 549.708 596.279 549.241 596.49 548.71L607.526 520.967Z" fill="#F1F2FA"/>
<path d="M465.826 517.365C466.832 514.645 471.15 514.601 472.225 517.3L479.628 535.877C479.711 536.087 479.821 536.287 479.955 536.476L494.584 557.081C496.078 559.186 494.203 561.897 491.412 561.668L469.292 559.852C469.043 559.832 468.793 559.836 468.545 559.865L448.824 562.137C445.928 562.471 443.95 559.607 445.599 557.468L455.711 544.353C455.891 544.119 456.033 543.863 456.133 543.594L465.826 517.365Z" fill="#F1F2FA"/>
<path d="M488.66 579.72C488.66 582.636 482.858 585 475.702 585C468.545 585 462.743 582.636 462.743 579.72C462.743 576.804 469.108 573 476.265 573C483.422 573 488.66 576.804 488.66 579.72Z" fill="#F1F2FA"/>
<path d="M619.368 581.96C619.368 585.848 613.567 589 606.41 589C599.254 589 593.452 585.848 593.452 581.96C593.452 578.072 599.817 573 606.974 573C614.13 573 619.368 578.072 619.368 581.96Z" fill="#F1F2FA"/>
<path d="M489.787 588.333C489.787 591.279 483.985 595 476.828 595C469.672 595 463.87 591.279 463.87 588.333C463.87 585.388 469.672 583 476.828 583C483.985 583 489.787 585.388 489.787 588.333Z" fill="#F1F2FA"/>
<path d="M618.242 592.111C618.242 596.039 612.44 601 605.284 601C598.127 601 592.325 596.039 592.325 592.111C592.325 588.184 598.127 585 605.283 585C612.44 585 618.242 588.184 618.242 592.111Z" fill="#F1F2FA"/>
<path d="M618.242 519C618.242 524.523 613.197 529 606.974 529C600.751 529 595.706 524.523 595.706 519C595.706 513.477 600.751 509 606.974 509C613.197 509 618.242 513.477 618.242 519Z" fill="#F1F2FA"/>
<path d="M484.153 519C484.153 524.523 479.108 529 472.885 529C466.661 529 461.617 524.523 461.617 519C461.617 513.477 466.661 509 472.885 509C479.108 509 484.153 513.477 484.153 519Z" fill="#F1F2FA"/>
<path d="M587.385 501C587.385 485.087 583.482 469.826 573.95 458.574C564.418 447.321 551.489 443 538.008 443C524.527 443 511.599 447.321 502.066 458.574C492.534 469.826 488.268 485.087 488.268 501H587.385Z" fill="#1D4ED8"/>
<path d="M488.268 544.5C488.268 567.176 493.623 588.923 503.155 604.958C512.688 620.992 525.616 638 539.097 638C552.578 638 565.507 620.992 575.039 604.958C584.571 588.923 589.927 567.176 589.927 544.5L488.268 544.5Z" fill="#1D4ED8"/>
<path d="M488.268 501H587.385L585.57 516.5L589.927 545H488.268L490.809 516.5L488.268 501Z" fill="#1D4ED8"/>
<path d="M582.295 520.967C582.978 518.304 585.711 518.297 586.401 520.957L590.615 537.204C590.669 537.415 590.741 537.617 590.828 537.806L599.657 556.914C600.525 558.793 599.656 561.274 598.048 561.508L584.551 563.469C584.409 563.49 584.266 563.491 584.124 563.473L569.912 561.681C567.957 561.434 567.218 558.032 568.754 556.347L574.487 550.058C574.806 549.708 575.048 549.241 575.184 548.71L582.295 520.967Z" fill="#1D4ED8"/>
<path d="M492.421 518.13C493.069 515.41 495.852 515.366 496.545 518.065L501.315 536.642C501.369 536.852 501.439 537.053 501.526 537.241L510.953 557.846C511.916 559.951 510.708 562.662 508.909 562.433L495.889 560.775C495.234 560.691 494.8 562.657 494.482 562.078V562.078C494.083 561.351 493.364 561.227 492.696 561.72L489.607 564L481.93 562.965C481.622 562.923 481.305 562.953 480.996 562.92C479.395 562.747 478.415 560.188 479.386 558.233L485.902 545.118C486.018 544.884 486.11 544.628 486.174 544.359L492.421 518.13Z" fill="#1D4ED8"/>
<path d="M505.695 579.72C505.695 582.636 501.956 585 497.345 585C492.733 585 488.994 582.636 488.994 579.72C488.994 576.804 493.096 573 497.708 573C502.319 573 505.695 576.804 505.695 579.72Z" fill="#1D4ED8"/>
<path d="M589.927 581.96C589.927 585.848 586.188 589 581.576 589C576.964 589 573.226 585.848 573.226 581.96C573.226 578.072 577.327 573 581.939 573C586.551 573 589.927 578.072 589.927 581.96Z" fill="#1D4ED8"/>
<path d="M506.421 588.333C506.421 591.279 502.683 595 498.071 595C493.459 595 489.72 591.279 489.72 588.333C489.72 585.388 493.459 583 498.071 583C502.683 583 506.421 585.388 506.421 588.333Z" fill="#1D4ED8"/>
<path d="M589.201 592.111C589.201 596.039 585.462 601 580.85 601C576.238 601 572.499 596.039 572.499 592.111C572.499 588.184 576.238 585 580.85 585C585.462 585 589.201 588.184 589.201 592.111Z" fill="#1D4ED8"/>
<path d="M589.201 519C589.201 524.523 585.95 529 581.939 529C577.929 529 574.678 524.523 574.678 519C574.678 513.477 577.929 509 581.939 509C585.95 509 589.201 513.477 589.201 519Z" fill="#1D4ED8"/>
<path d="M502.791 519C502.791 524.523 499.54 529 495.529 529C491.519 529 488.268 524.523 488.268 519C488.268 513.477 491.519 509 495.529 509C499.54 509 502.791 513.477 502.791 519Z" fill="#1D4ED8"/>
<path d="M587.385 501C587.385 485.087 583.482 469.826 573.95 458.574C564.418 447.321 551.489 443 538.008 443C524.527 443 511.599 447.321 502.066 458.574C492.534 469.826 488.268 485.087 488.268 501H587.385Z" fill="#1D4ED8"/>
<path d="M488.268 544.5C488.268 567.176 493.623 588.923 503.155 604.958C512.688 620.992 525.616 638 539.097 638C552.578 638 565.507 620.992 575.039 604.958C584.571 588.923 589.927 567.176 589.927 544.5L488.268 544.5Z" fill="#1D4ED8"/>
<path d="M488.268 501H587.385L585.57 516.5L589.927 545H488.268L490.809 516.5L488.268 501Z" fill="#1D4ED8"/>
<path d="M582.295 520.967C582.978 518.304 585.711 518.297 586.401 520.957L590.615 537.204C590.669 537.415 590.741 537.617 590.828 537.806L599.657 556.914C600.525 558.793 599.656 561.274 598.048 561.508L584.551 563.469C584.409 563.49 584.266 563.491 584.124 563.473L569.912 561.681C567.957 561.434 567.218 558.032 568.754 556.347L574.487 550.058C574.806 549.708 575.048 549.241 575.184 548.71L582.295 520.967Z" fill="#1D4ED8"/>
<path d="M492.421 518.13C493.069 515.41 495.852 515.366 496.545 518.065L501.315 536.642C501.369 536.852 501.439 537.053 501.526 537.241L510.953 557.846C511.916 559.951 510.708 562.662 508.909 562.433L495.889 560.775C495.234 560.691 494.8 562.657 494.482 562.078V562.078C494.083 561.351 493.364 561.227 492.696 561.72L489.607 564L481.93 562.965C481.622 562.923 481.305 562.953 480.996 562.92C479.395 562.747 478.415 560.188 479.386 558.233L485.902 545.118C486.018 544.884 486.11 544.628 486.174 544.359L492.421 518.13Z" fill="#1D4ED8"/>
<path d="M505.695 579.72C505.695 582.636 501.956 585 497.345 585C492.733 585 488.994 582.636 488.994 579.72C488.994 576.804 493.096 573 497.708 573C502.319 573 505.695 576.804 505.695 579.72Z" fill="#1D4ED8"/>
<path d="M589.927 581.96C589.927 585.848 586.188 589 581.576 589C576.964 589 573.226 585.848 573.226 581.96C573.226 578.072 577.327 573 581.939 573C586.551 573 589.927 578.072 589.927 581.96Z" fill="#1D4ED8"/>
<path d="M506.421 588.333C506.421 591.279 502.683 595 498.071 595C493.459 595 489.72 591.279 489.72 588.333C489.72 585.388 493.459 583 498.071 583C502.683 583 506.421 585.388 506.421 588.333Z" fill="#1D4ED8"/>
<path d="M589.201 592.111C589.201 596.039 585.462 601 580.85 601C576.238 601 572.499 596.039 572.499 592.111C572.499 588.184 576.238 585 580.85 585C585.462 585 589.201 588.184 589.201 592.111Z" fill="#1D4ED8"/>
<path d="M589.201 519C589.201 524.523 585.95 529 581.939 529C577.929 529 574.678 524.523 574.678 519C574.678 513.477 577.929 509 581.939 509C585.95 509 589.201 513.477 589.201 519Z" fill="#1D4ED8"/>
<path d="M502.791 519C502.791 524.523 499.54 529 495.529 529C491.519 529 488.268 524.523 488.268 519C488.268 513.477 491.519 509 495.529 509C499.54 509 502.791 513.477 502.791 519Z" fill="#1D4ED8"/>
</svg>
