<svg width="1200" height="675" viewBox="0 0 1200 675" fill="none" xmlns="http://www.w3.org/2000/svg">
<rect width="1200" height="675" fill="white"/>
<path d="M428.425 298C428.425 282.087 422.368 266.826 407.576 255.574C392.784 244.321 372.722 240 351.802 240C330.883 240 310.821 244.321 296.029 255.574C281.236 266.826 274.617 282.087 274.617 298H428.425Z" fill="#F1F2FA"/>
<path d="M274.617 341.5C274.617 364.176 282.927 385.923 297.719 401.958C312.511 417.992 332.573 435 353.493 435C374.412 435 394.474 417.992 409.266 401.958C424.058 385.923 432.368 364.176 432.368 341.5L274.617 341.5Z" fill="#F1F2FA"/>
<path d="M274.617 298H428.425L425.608 313.5L432.368 342H274.617L278.56 313.5L274.617 298Z" fill="#F1F2FA"/>
<path d="M420.526 317.967C421.586 315.304 425.827 315.297 426.897 317.957L433.436 334.204C433.521 334.415 433.632 334.617 433.767 334.806L447.468 353.914C448.815 355.793 447.466 358.274 444.97 358.508L424.027 360.469C423.806 360.49 423.584 360.491 423.364 360.473L401.311 358.681C398.277 358.434 397.13 355.032 399.513 353.347L408.409 347.058C408.905 346.708 409.279 346.241 409.49 345.71L420.526 317.967Z" fill="#F1F2FA"/>
<path d="M278.826 314.365C279.832 311.645 284.15 311.601 285.225 314.3L292.628 332.877C292.711 333.087 292.821 333.287 292.955 333.476L307.584 354.081C309.078 356.186 307.203 358.897 304.412 358.668L282.292 356.852C282.043 356.832 281.793 356.836 281.545 356.865L261.824 359.137C258.928 359.471 256.95 356.607 258.599 354.468L268.711 341.353C268.891 341.119 269.033 340.863 269.133 340.594L278.826 314.365Z" fill="#F1F2FA"/>
<path d="M301.66 376.72C301.66 379.636 295.858 382 288.702 382C281.545 382 275.743 379.636 275.743 376.72C275.743 373.804 282.108 370 289.265 370C296.422 370 301.66 373.804 301.66 376.72Z" fill="#F1F2FA"/>
<path d="M432.368 378.96C432.368 382.848 426.567 386 419.41 386C412.254 386 406.452 382.848 406.452 378.96C406.452 375.072 412.817 370 419.974 370C427.13 370 432.368 375.072 432.368 378.96Z" fill="#F1F2FA"/>
<path d="M302.787 385.333C302.787 388.279 296.985 392 289.828 392C282.672 392 276.87 388.279 276.87 385.333C276.87 382.388 282.672 380 289.828 380C296.985 380 302.787 382.388 302.787 385.333Z" fill="#F1F2FA"/>
<path d="M431.242 389.111C431.242 393.039 425.44 398 418.284 398C411.127 398 405.325 393.039 405.325 389.111C405.325 385.184 411.127 382 418.283 382C425.44 382 431.242 385.184 431.242 389.111Z" fill="#F1F2FA"/>
<path d="M431.242 316C431.242 321.523 426.197 326 419.974 326C413.751 326 408.706 321.523 408.706 316C408.706 310.477 413.751 306 419.974 306C426.197 306 431.242 310.477 431.242 316Z" fill="#F1F2FA"/>
<path d="M297.153 316C297.153 321.523 292.108 326 285.885 326C279.661 326 274.617 321.523 274.617 316C274.617 310.477 279.661 306 285.885 306C292.108 306 297.153 310.477 297.153 316Z" fill="#F1F2FA"/>
<path d="M428.425 298C428.425 282.087 422.368 266.826 407.576 255.574C392.784 244.321 372.722 240 351.802 240C330.883 240 310.821 244.321 296.029 255.574C281.236 266.826 274.617 282.087 274.617 298H428.425Z" fill="#F1F2FA"/>
<path d="M274.617 341.5C274.617 364.176 282.927 385.923 297.719 401.958C312.511 417.992 332.573 435 353.493 435C374.412 435 394.474 417.992 409.266 401.958C424.058 385.923 432.368 364.176 432.368 341.5L274.617 341.5Z" fill="#F1F2FA"/>
<path d="M274.617 298H428.425L425.608 313.5L432.368 342H274.617L278.56 313.5L274.617 298Z" fill="#F1F2FA"/>
<path d="M420.526 317.967C421.586 315.304 425.827 315.297 426.897 317.957L433.436 334.204C433.521 334.415 433.632 334.617 433.767 334.806L447.468 353.914C448.815 355.793 447.466 358.274 444.97 358.508L424.027 360.469C423.806 360.49 423.584 360.491 423.364 360.473L401.311 358.681C398.277 358.434 397.13 355.032 399.513 353.347L408.409 347.058C408.905 346.708 409.279 346.241 409.49 345.71L420.526 317.967Z" fill="#F1F2FA"/>
<path d="M278.826 314.365C279.832 311.645 284.15 311.601 285.225 314.3L292.628 332.877C292.711 333.087 292.821 333.287 292.955 333.476L307.584 354.081C309.078 356.186 307.203 358.897 304.412 358.668L282.292 356.852C282.043 356.832 281.793 356.836 281.545 356.865L261.824 359.137C258.928 359.471 256.95 356.607 258.599 354.468L268.711 341.353C268.891 341.119 269.033 340.863 269.133 340.594L278.826 314.365Z" fill="#F1F2FA"/>
<path d="M301.66 376.72C301.66 379.636 295.858 382 288.702 382C281.545 382 275.743 379.636 275.743 376.72C275.743 373.804 282.108 370 289.265 370C296.422 370 301.66 373.804 301.66 376.72Z" fill="#F1F2FA"/>
<path d="M432.368 378.96C432.368 382.848 426.567 386 419.41 386C412.254 386 406.452 382.848 406.452 378.96C406.452 375.072 412.817 370 419.974 370C427.13 370 432.368 375.072 432.368 378.96Z" fill="#F1F2FA"/>
<path d="M302.787 385.333C302.787 388.279 296.985 392 289.828 392C282.672 392 276.87 388.279 276.87 385.333C276.87 382.388 282.672 380 289.828 380C296.985 380 302.787 382.388 302.787 385.333Z" fill="#F1F2FA"/>
<path d="M431.242 389.111C431.242 393.039 425.44 398 418.284 398C411.127 398 405.325 393.039 405.325 389.111C405.325 385.184 411.127 382 418.283 382C425.44 382 431.242 385.184 431.242 389.111Z" fill="#F1F2FA"/>
<path d="M431.242 316C431.242 321.523 426.197 326 419.974 326C413.751 326 408.706 321.523 408.706 316C408.706 310.477 413.751 306 419.974 306C426.197 306 431.242 310.477 431.242 316Z" fill="#F1F2FA"/>
<path d="M297.153 316C297.153 321.523 292.108 326 285.885 326C279.661 326 274.617 321.523 274.617 316C274.617 310.477 279.661 306 285.885 306C292.108 306 297.153 310.477 297.153 316Z" fill="#F1F2FA"/>
<path d="M400.385 298C400.385 282.087 396.482 266.826 386.95 255.574C377.418 244.321 364.489 240 351.008 240C337.527 240 324.599 244.321 315.066 255.574C305.534 266.826 301.268 282.087 301.268 298H400.385Z" fill="#1D4ED8"/>
<path d="M301.268 341.5C301.268 364.176 306.623 385.923 316.155 401.958C325.688 417.992 338.616 435 352.097 435C365.578 435 378.507 417.992 388.039 401.958C397.571 385.923 402.927 364.176 402.927 341.5L301.268 341.5Z" fill="#1D4ED8"/>
<path d="M301.268 298H400.385L398.57 313.5L402.927 342H301.268L303.809 313.5L301.268 298Z" fill="#1D4ED8"/>
<path d="M395.295 317.967C395.978 315.304 398.711 315.297 399.401 317.957L403.615 334.204C403.669 334.415 403.741 334.617 403.828 334.806L412.657 353.914C413.525 355.793 412.656 358.274 411.048 358.508L397.551 360.469C397.409 360.49 397.266 360.491 397.124 360.473L382.912 358.681C380.957 358.434 380.218 355.032 381.754 353.347L387.487 347.058C387.806 346.708 388.048 346.241 388.184 345.71L395.295 317.967Z" fill="#1D4ED8"/>
<path d="M305.421 315.13C306.069 312.41 308.852 312.366 309.545 315.065L314.315 333.642C314.369 333.852 314.439 334.053 314.526 334.241L323.953 354.846C324.916 356.951 323.708 359.662 321.909 359.433L308.889 357.775C308.234 357.691 307.8 359.657 307.482 359.078V359.078C307.083 358.351 306.364 358.227 305.696 358.72L302.607 361L294.93 359.965C294.622 359.923 294.305 359.953 293.996 359.92C292.395 359.747 291.415 357.188 292.386 355.233L298.902 342.118C299.018 341.884 299.11 341.628 299.174 341.359L305.421 315.13Z" fill="#1D4ED8"/>
<path d="M318.695 376.72C318.695 379.636 314.956 382 310.345 382C305.733 382 301.994 379.636 301.994 376.72C301.994 373.804 306.096 370 310.708 370C315.319 370 318.695 373.804 318.695 376.72Z" fill="#1D4ED8"/>
<path d="M402.927 378.96C402.927 382.848 399.188 386 394.576 386C389.964 386 386.226 382.848 386.226 378.96C386.226 375.072 390.327 370 394.939 370C399.551 370 402.927 375.072 402.927 378.96Z" fill="#1D4ED8"/>
<path d="M319.421 385.333C319.421 388.279 315.683 392 311.071 392C306.459 392 302.72 388.279 302.72 385.333C302.72 382.388 306.459 380 311.071 380C315.683 380 319.421 382.388 319.421 385.333Z" fill="#1D4ED8"/>
<path d="M402.201 389.111C402.201 393.039 398.462 398 393.85 398C389.238 398 385.499 393.039 385.499 389.111C385.499 385.184 389.238 382 393.85 382C398.462 382 402.201 385.184 402.201 389.111Z" fill="#1D4ED8"/>
<path d="M402.201 316C402.201 321.523 398.95 326 394.939 326C390.929 326 387.678 321.523 387.678 316C387.678 310.477 390.929 306 394.939 306C398.95 306 402.201 310.477 402.201 316Z" fill="#1D4ED8"/>
<path d="M315.791 316C315.791 321.523 312.54 326 308.529 326C304.519 326 301.268 321.523 301.268 316C301.268 310.477 304.519 306 308.529 306C312.54 306 315.791 310.477 315.791 316Z" fill="#1D4ED8"/>
<path d="M400.385 298C400.385 282.087 396.482 266.826 386.95 255.574C377.418 244.321 364.489 240 351.008 240C337.527 240 324.599 244.321 315.066 255.574C305.534 266.826 301.268 282.087 301.268 298H400.385Z" fill="#1D4ED8"/>
<path d="M301.268 341.5C301.268 364.176 306.623 385.923 316.155 401.958C325.688 417.992 338.616 435 352.097 435C365.578 435 378.507 417.992 388.039 401.958C397.571 385.923 402.927 364.176 402.927 341.5L301.268 341.5Z" fill="#1D4ED8"/>
<path d="M301.268 298H400.385L398.57 313.5L402.927 342H301.268L303.809 313.5L301.268 298Z" fill="#1D4ED8"/>
<path d="M395.295 317.967C395.978 315.304 398.711 315.297 399.401 317.957L403.615 334.204C403.669 334.415 403.741 334.617 403.828 334.806L412.657 353.914C413.525 355.793 412.656 358.274 411.048 358.508L397.551 360.469C397.409 360.49 397.266 360.491 397.124 360.473L382.912 358.681C380.957 358.434 380.218 355.032 381.754 353.347L387.487 347.058C387.806 346.708 388.048 346.241 388.184 345.71L395.295 317.967Z" fill="#1D4ED8"/>
<path d="M305.421 315.13C306.069 312.41 308.852 312.366 309.545 315.065L314.315 333.642C314.369 333.852 314.439 334.053 314.526 334.241L323.953 354.846C324.916 356.951 323.708 359.662 321.909 359.433L308.889 357.775C308.234 357.691 307.8 359.657 307.482 359.078V359.078C307.083 358.351 306.364 358.227 305.696 358.72L302.607 361L294.93 359.965C294.622 359.923 294.305 359.953 293.996 359.92C292.395 359.747 291.415 357.188 292.386 355.233L298.902 342.118C299.018 341.884 299.11 341.628 299.174 341.359L305.421 315.13Z" fill="#1D4ED8"/>
<path d="M318.695 376.72C318.695 379.636 314.956 382 310.345 382C305.733 382 301.994 379.636 301.994 376.72C301.994 373.804 306.096 370 310.708 370C315.319 370 318.695 373.804 318.695 376.72Z" fill="#1D4ED8"/>
<path d="M402.927 378.96C402.927 382.848 399.188 386 394.576 386C389.964 386 386.226 382.848 386.226 378.96C386.226 375.072 390.327 370 394.939 370C399.551 370 402.927 375.072 402.927 378.96Z" fill="#1D4ED8"/>
<path d="M319.421 385.333C319.421 388.279 315.683 392 311.071 392C306.459 392 302.72 388.279 302.72 385.333C302.72 382.388 306.459 380 311.071 380C315.683 380 319.421 382.388 319.421 385.333Z" fill="#1D4ED8"/>
<path d="M402.201 389.111C402.201 393.039 398.462 398 393.85 398C389.238 398 385.499 393.039 385.499 389.111C385.499 385.184 389.238 382 393.85 382C398.462 382 402.201 385.184 402.201 389.111Z" fill="#1D4ED8"/>
<path d="M402.201 316C402.201 321.523 398.95 326 394.939 326C390.929 326 387.678 321.523 387.678 316C387.678 310.477 390.929 306 394.939 306C398.95 306 402.201 310.477 402.201 316Z" fill="#1D4ED8"/>
<path d="M315.791 316C315.791 321.523 312.54 326 308.529 326C304.519 326 301.268 321.523 301.268 316C301.268 310.477 304.519 306 308.529 306C312.54 306 315.791 310.477 315.791 316Z" fill="#1D4ED8"/>
<path d="M488.64 338.4C483.693 338.4 479.26 337.467 475.34 335.6C471.513 333.64 468.48 331.027 466.24 327.76C464.093 324.493 463.02 320.807 463.02 316.7C463.02 311.66 464.327 307.693 466.94 304.8C469.553 301.813 473.8 299.667 479.68 298.36C485.56 297.053 493.447 296.4 503.34 296.4H510.34V306.48H503.48C497.693 306.48 493.073 306.76 489.62 307.32C486.167 307.88 483.693 308.86 482.2 310.26C480.8 311.567 480.1 313.433 480.1 315.86C480.1 318.94 481.173 321.46 483.32 323.42C485.467 325.38 488.453 326.36 492.28 326.36C495.36 326.36 498.067 325.66 500.4 324.26C502.827 322.767 504.74 320.76 506.14 318.24C507.54 315.72 508.24 312.827 508.24 309.56V293.46C508.24 288.793 507.213 285.433 505.16 283.38C503.107 281.327 499.653 280.3 494.8 280.3C492.093 280.3 489.153 280.627 485.98 281.28C482.9 281.933 479.633 283.053 476.18 284.64C474.407 285.48 472.82 285.713 471.42 285.34C470.113 284.967 469.087 284.22 468.34 283.1C467.593 281.887 467.22 280.58 467.22 279.18C467.22 277.78 467.593 276.427 468.34 275.12C469.087 273.72 470.347 272.693 472.12 272.04C476.413 270.267 480.52 269.007 484.44 268.26C488.453 267.513 492.093 267.14 495.36 267.14C502.08 267.14 507.587 268.167 511.88 270.22C516.267 272.273 519.533 275.4 521.68 279.6C523.827 283.707 524.9 289.027 524.9 295.56V329.16C524.9 332.053 524.2 334.293 522.8 335.88C521.4 337.373 519.393 338.12 516.78 338.12C514.167 338.12 512.113 337.373 510.62 335.88C509.22 334.293 508.52 332.053 508.52 329.16V322.44H509.64C508.987 325.707 507.68 328.553 505.72 330.98C503.853 333.313 501.473 335.133 498.58 336.44C495.687 337.747 492.373 338.4 488.64 338.4ZM565.343 338.12C562.543 338.12 560.396 337.373 558.903 335.88C557.409 334.293 556.663 332.053 556.663 329.16V276.24C556.663 273.347 557.409 271.153 558.903 269.66C560.396 268.167 562.496 267.42 565.203 267.42C567.909 267.42 570.009 268.167 571.503 269.66C572.996 271.153 573.743 273.347 573.743 276.24V285.76L572.203 282.26C574.256 277.313 577.429 273.58 581.723 271.06C586.109 268.447 591.056 267.14 596.563 267.14C602.069 267.14 606.596 268.167 610.143 270.22C613.689 272.273 616.349 275.4 618.123 279.6C619.896 283.707 620.783 288.933 620.783 295.28V329.16C620.783 332.053 620.036 334.293 618.543 335.88C617.049 337.373 614.903 338.12 612.103 338.12C609.303 338.12 607.109 337.373 605.523 335.88C604.029 334.293 603.283 332.053 603.283 329.16V296.12C603.283 290.8 602.256 286.927 600.203 284.5C598.243 282.073 595.163 280.86 590.963 280.86C585.829 280.86 581.723 282.493 578.643 285.76C575.656 288.933 574.163 293.18 574.163 298.5V329.16C574.163 335.133 571.223 338.12 565.343 338.12ZM661.237 338.12C658.437 338.12 656.29 337.373 654.797 335.88C653.304 334.293 652.557 332.053 652.557 329.16V276.24C652.557 273.347 653.304 271.153 654.797 269.66C656.29 268.167 658.39 267.42 661.097 267.42C663.804 267.42 665.904 268.167 667.397 269.66C668.89 271.153 669.637 273.347 669.637 276.24V285.76L668.097 282.26C670.15 277.313 673.324 273.58 677.617 271.06C682.004 268.447 686.95 267.14 692.457 267.14C697.964 267.14 702.49 268.167 706.037 270.22C709.584 272.273 712.244 275.4 714.017 279.6C715.79 283.707 716.677 288.933 716.677 295.28V329.16C716.677 332.053 715.93 334.293 714.437 335.88C712.944 337.373 710.797 338.12 707.997 338.12C705.197 338.12 703.004 337.373 701.417 335.88C699.924 334.293 699.177 332.053 699.177 329.16V296.12C699.177 290.8 698.15 286.927 696.097 284.5C694.137 282.073 691.057 280.86 686.857 280.86C681.724 280.86 677.617 282.493 674.537 285.76C671.55 288.933 670.057 293.18 670.057 298.5V329.16C670.057 335.133 667.117 338.12 661.237 338.12ZM770.992 338.4C766.045 338.4 761.612 337.467 757.692 335.6C753.865 333.64 750.832 331.027 748.592 327.76C746.445 324.493 745.372 320.807 745.372 316.7C745.372 311.66 746.678 307.693 749.292 304.8C751.905 301.813 756.152 299.667 762.032 298.36C767.912 297.053 775.798 296.4 785.692 296.4H792.692V306.48H785.832C780.045 306.48 775.425 306.76 771.972 307.32C768.518 307.88 766.045 308.86 764.552 310.26C763.152 311.567 762.452 313.433 762.452 315.86C762.452 318.94 763.525 321.46 765.672 323.42C767.818 325.38 770.805 326.36 774.632 326.36C777.712 326.36 780.418 325.66 782.752 324.26C785.178 322.767 787.092 320.76 788.492 318.24C789.892 315.72 790.592 312.827 790.592 309.56V293.46C790.592 288.793 789.565 285.433 787.512 283.38C785.458 281.327 782.005 280.3 777.152 280.3C774.445 280.3 771.505 280.627 768.332 281.28C765.252 281.933 761.985 283.053 758.532 284.64C756.758 285.48 755.172 285.713 753.772 285.34C752.465 284.967 751.438 284.22 750.692 283.1C749.945 281.887 749.572 280.58 749.572 279.18C749.572 277.78 749.945 276.427 750.692 275.12C751.438 273.72 752.698 272.693 754.472 272.04C758.765 270.267 762.872 269.007 766.792 268.26C770.805 267.513 774.445 267.14 777.712 267.14C784.432 267.14 789.938 268.167 794.232 270.22C798.618 272.273 801.885 275.4 804.032 279.6C806.178 283.707 807.252 289.027 807.252 295.56V329.16C807.252 332.053 806.552 334.293 805.152 335.88C803.752 337.373 801.745 338.12 799.132 338.12C796.518 338.12 794.465 337.373 792.972 335.88C791.572 334.293 790.872 332.053 790.872 329.16V322.44H791.992C791.338 325.707 790.032 328.553 788.072 330.98C786.205 333.313 783.825 335.133 780.932 336.44C778.038 337.747 774.725 338.4 770.992 338.4ZM847.193 272.6C845.98 274.093 844.673 274.933 843.273 275.12C841.966 275.307 840.8 275.073 839.773 274.42C838.746 273.673 838.186 272.647 838.093 271.34C838 269.94 838.606 268.447 839.913 266.86C841.78 264.527 843.04 262.193 843.693 259.86C844.346 257.527 844.673 255.473 844.673 253.7L845.373 258.32C842.106 258.32 839.446 257.387 837.393 255.52C835.433 253.653 834.453 251.133 834.453 247.96C834.453 244.88 835.386 242.407 837.253 240.54C839.12 238.58 841.64 237.6 844.813 237.6C848.08 237.6 850.646 238.72 852.513 240.96C854.38 243.107 855.313 246.233 855.313 250.34C855.313 252.58 855.08 254.913 854.613 257.34C854.24 259.673 853.446 262.147 852.233 264.76C851.113 267.28 849.433 269.893 847.193 272.6ZM906.375 338.4C902.362 338.4 898.115 337.98 893.635 337.14C889.155 336.3 885.142 334.853 881.595 332.8C880.102 331.867 879.028 330.793 878.375 329.58C877.815 328.273 877.582 327.013 877.675 325.8C877.862 324.493 878.328 323.373 879.075 322.44C879.915 321.507 880.942 320.9 882.155 320.62C883.462 320.34 884.862 320.573 886.355 321.32C890.088 323.093 893.588 324.353 896.855 325.1C900.122 325.753 903.342 326.08 906.515 326.08C910.995 326.08 914.308 325.333 916.455 323.84C918.695 322.253 919.815 320.2 919.815 317.68C919.815 315.533 919.068 313.9 917.575 312.78C916.175 311.567 914.028 310.68 911.135 310.12L897.135 307.46C891.348 306.34 886.915 304.24 883.835 301.16C880.848 297.987 879.355 293.927 879.355 288.98C879.355 284.5 880.568 280.627 882.995 277.36C885.515 274.093 888.968 271.573 893.355 269.8C897.742 268.027 902.782 267.14 908.475 267.14C912.582 267.14 916.408 267.607 919.955 268.54C923.595 269.38 927.095 270.733 930.455 272.6C931.855 273.347 932.788 274.327 933.255 275.54C933.815 276.753 933.955 278.013 933.675 279.32C933.395 280.533 932.835 281.653 931.995 282.68C931.155 283.613 930.082 284.22 928.775 284.5C927.562 284.687 926.162 284.407 924.575 283.66C921.682 282.167 918.882 281.093 916.175 280.44C913.562 279.787 911.042 279.46 908.615 279.46C904.042 279.46 900.635 280.253 898.395 281.84C896.248 283.427 895.175 285.527 895.175 288.14C895.175 290.1 895.828 291.733 897.135 293.04C898.442 294.347 900.448 295.233 903.155 295.7L917.155 298.36C923.222 299.48 927.795 301.533 930.875 304.52C934.048 307.507 935.635 311.52 935.635 316.56C935.635 323.373 932.975 328.74 927.655 332.66C922.335 336.487 915.242 338.4 906.375 338.4Z" fill="white"/>
<path d="M488.64 338.4C483.693 338.4 479.26 337.467 475.34 335.6C471.513 333.64 468.48 331.027 466.24 327.76C464.093 324.493 463.02 320.807 463.02 316.7C463.02 311.66 464.327 307.693 466.94 304.8C469.553 301.813 473.8 299.667 479.68 298.36C485.56 297.053 493.447 296.4 503.34 296.4H510.34V306.48H503.48C497.693 306.48 493.073 306.76 489.62 307.32C486.167 307.88 483.693 308.86 482.2 310.26C480.8 311.567 480.1 313.433 480.1 315.86C480.1 318.94 481.173 321.46 483.32 323.42C485.467 325.38 488.453 326.36 492.28 326.36C495.36 326.36 498.067 325.66 500.4 324.26C502.827 322.767 504.74 320.76 506.14 318.24C507.54 315.72 508.24 312.827 508.24 309.56V293.46C508.24 288.793 507.213 285.433 505.16 283.38C503.107 281.327 499.653 280.3 494.8 280.3C492.093 280.3 489.153 280.627 485.98 281.28C482.9 281.933 479.633 283.053 476.18 284.64C474.407 285.48 472.82 285.713 471.42 285.34C470.113 284.967 469.087 284.22 468.34 283.1C467.593 281.887 467.22 280.58 467.22 279.18C467.22 277.78 467.593 276.427 468.34 275.12C469.087 273.72 470.347 272.693 472.12 272.04C476.413 270.267 480.52 269.007 484.44 268.26C488.453 267.513 492.093 267.14 495.36 267.14C502.08 267.14 507.587 268.167 511.88 270.22C516.267 272.273 519.533 275.4 521.68 279.6C523.827 283.707 524.9 289.027 524.9 295.56V329.16C524.9 332.053 524.2 334.293 522.8 335.88C521.4 337.373 519.393 338.12 516.78 338.12C514.167 338.12 512.113 337.373 510.62 335.88C509.22 334.293 508.52 332.053 508.52 329.16V322.44H509.64C508.987 325.707 507.68 328.553 505.72 330.98C503.853 333.313 501.473 335.133 498.58 336.44C495.687 337.747 492.373 338.4 488.64 338.4ZM565.343 338.12C562.543 338.12 560.396 337.373 558.903 335.88C557.409 334.293 556.663 332.053 556.663 329.16V276.24C556.663 273.347 557.409 271.153 558.903 269.66C560.396 268.167 562.496 267.42 565.203 267.42C567.909 267.42 570.009 268.167 571.503 269.66C572.996 271.153 573.743 273.347 573.743 276.24V285.76L572.203 282.26C574.256 277.313 577.429 273.58 581.723 271.06C586.109 268.447 591.056 267.14 596.563 267.14C602.069 267.14 606.596 268.167 610.143 270.22C613.689 272.273 616.349 275.4 618.123 279.6C619.896 283.707 620.783 288.933 620.783 295.28V329.16C620.783 332.053 620.036 334.293 618.543 335.88C617.049 337.373 614.903 338.12 612.103 338.12C609.303 338.12 607.109 337.373 605.523 335.88C604.029 334.293 603.283 332.053 603.283 329.16V296.12C603.283 290.8 602.256 286.927 600.203 284.5C598.243 282.073 595.163 280.86 590.963 280.86C585.829 280.86 581.723 282.493 578.643 285.76C575.656 288.933 574.163 293.18 574.163 298.5V329.16C574.163 335.133 571.223 338.12 565.343 338.12ZM661.237 338.12C658.437 338.12 656.29 337.373 654.797 335.88C653.304 334.293 652.557 332.053 652.557 329.16V276.24C652.557 273.347 653.304 271.153 654.797 269.66C656.29 268.167 658.39 267.42 661.097 267.42C663.804 267.42 665.904 268.167 667.397 269.66C668.89 271.153 669.637 273.347 669.637 276.24V285.76L668.097 282.26C670.15 277.313 673.324 273.58 677.617 271.06C682.004 268.447 686.95 267.14 692.457 267.14C697.964 267.14 702.49 268.167 706.037 270.22C709.584 272.273 712.244 275.4 714.017 279.6C715.79 283.707 716.677 288.933 716.677 295.28V329.16C716.677 332.053 715.93 334.293 714.437 335.88C712.944 337.373 710.797 338.12 707.997 338.12C705.197 338.12 703.004 337.373 701.417 335.88C699.924 334.293 699.177 332.053 699.177 329.16V296.12C699.177 290.8 698.15 286.927 696.097 284.5C694.137 282.073 691.057 280.86 686.857 280.86C681.724 280.86 677.617 282.493 674.537 285.76C671.55 288.933 670.057 293.18 670.057 298.5V329.16C670.057 335.133 667.117 338.12 661.237 338.12ZM770.992 338.4C766.045 338.4 761.612 337.467 757.692 335.6C753.865 333.64 750.832 331.027 748.592 327.76C746.445 324.493 745.372 320.807 745.372 316.7C745.372 311.66 746.678 307.693 749.292 304.8C751.905 301.813 756.152 299.667 762.032 298.36C767.912 297.053 775.798 296.4 785.692 296.4H792.692V306.48H785.832C780.045 306.48 775.425 306.76 771.972 307.32C768.518 307.88 766.045 308.86 764.552 310.26C763.152 311.567 762.452 313.433 762.452 315.86C762.452 318.94 763.525 321.46 765.672 323.42C767.818 325.38 770.805 326.36 774.632 326.36C777.712 326.36 780.418 325.66 782.752 324.26C785.178 322.767 787.092 320.76 788.492 318.24C789.892 315.72 790.592 312.827 790.592 309.56V293.46C790.592 288.793 789.565 285.433 787.512 283.38C785.458 281.327 782.005 280.3 777.152 280.3C774.445 280.3 771.505 280.627 768.332 281.28C765.252 281.933 761.985 283.053 758.532 284.64C756.758 285.48 755.172 285.713 753.772 285.34C752.465 284.967 751.438 284.22 750.692 283.1C749.945 281.887 749.572 280.58 749.572 279.18C749.572 277.78 749.945 276.427 750.692 275.12C751.438 273.72 752.698 272.693 754.472 272.04C758.765 270.267 762.872 269.007 766.792 268.26C770.805 267.513 774.445 267.14 777.712 267.14C784.432 267.14 789.938 268.167 794.232 270.22C798.618 272.273 801.885 275.4 804.032 279.6C806.178 283.707 807.252 289.027 807.252 295.56V329.16C807.252 332.053 806.552 334.293 805.152 335.88C803.752 337.373 801.745 338.12 799.132 338.12C796.518 338.12 794.465 337.373 792.972 335.88C791.572 334.293 790.872 332.053 790.872 329.16V322.44H791.992C791.338 325.707 790.032 328.553 788.072 330.98C786.205 333.313 783.825 335.133 780.932 336.44C778.038 337.747 774.725 338.4 770.992 338.4ZM847.193 272.6C845.98 274.093 844.673 274.933 843.273 275.12C841.966 275.307 840.8 275.073 839.773 274.42C838.746 273.673 838.186 272.647 838.093 271.34C838 269.94 838.606 268.447 839.913 266.86C841.78 264.527 843.04 262.193 843.693 259.86C844.346 257.527 844.673 255.473 844.673 253.7L845.373 258.32C842.106 258.32 839.446 257.387 837.393 255.52C835.433 253.653 834.453 251.133 834.453 247.96C834.453 244.88 835.386 242.407 837.253 240.54C839.12 238.58 841.64 237.6 844.813 237.6C848.08 237.6 850.646 238.72 852.513 240.96C854.38 243.107 855.313 246.233 855.313 250.34C855.313 252.58 855.08 254.913 854.613 257.34C854.24 259.673 853.446 262.147 852.233 264.76C851.113 267.28 849.433 269.893 847.193 272.6ZM906.375 338.4C902.362 338.4 898.115 337.98 893.635 337.14C889.155 336.3 885.142 334.853 881.595 332.8C880.102 331.867 879.028 330.793 878.375 329.58C877.815 328.273 877.582 327.013 877.675 325.8C877.862 324.493 878.328 323.373 879.075 322.44C879.915 321.507 880.942 320.9 882.155 320.62C883.462 320.34 884.862 320.573 886.355 321.32C890.088 323.093 893.588 324.353 896.855 325.1C900.122 325.753 903.342 326.08 906.515 326.08C910.995 326.08 914.308 325.333 916.455 323.84C918.695 322.253 919.815 320.2 919.815 317.68C919.815 315.533 919.068 313.9 917.575 312.78C916.175 311.567 914.028 310.68 911.135 310.12L897.135 307.46C891.348 306.34 886.915 304.24 883.835 301.16C880.848 297.987 879.355 293.927 879.355 288.98C879.355 284.5 880.568 280.627 882.995 277.36C885.515 274.093 888.968 271.573 893.355 269.8C897.742 268.027 902.782 267.14 908.475 267.14C912.582 267.14 916.408 267.607 919.955 268.54C923.595 269.38 927.095 270.733 930.455 272.6C931.855 273.347 932.788 274.327 933.255 275.54C933.815 276.753 933.955 278.013 933.675 279.32C933.395 280.533 932.835 281.653 931.995 282.68C931.155 283.613 930.082 284.22 928.775 284.5C927.562 284.687 926.162 284.407 924.575 283.66C921.682 282.167 918.882 281.093 916.175 280.44C913.562 279.787 911.042 279.46 908.615 279.46C904.042 279.46 900.635 280.253 898.395 281.84C896.248 283.427 895.175 285.527 895.175 288.14C895.175 290.1 895.828 291.733 897.135 293.04C898.442 294.347 900.448 295.233 903.155 295.7L917.155 298.36C923.222 299.48 927.795 301.533 930.875 304.52C934.048 307.507 935.635 311.52 935.635 316.56C935.635 323.373 932.975 328.74 927.655 332.66C922.335 336.487 915.242 338.4 906.375 338.4Z" fill="white"/>
<path d="M467.8 423.63C466.54 423.63 465.55 423.27 464.83 422.55C464.11 421.83 463.75 420.78 463.75 419.4V382.68C463.75 381.3 464.11 380.28 464.83 379.62C465.55 378.9 466.54 378.54 467.8 378.54C469.06 378.54 470.02 378.9 470.68 379.62C471.4 380.28 471.76 381.3 471.76 382.68V390.33L470.77 388.71C471.91 385.41 473.74 382.86 476.26 381.06C478.84 379.26 481.9 378.36 485.44 378.36C489.16 378.36 492.16 379.26 494.44 381.06C496.72 382.8 498.25 385.47 499.03 389.07H497.77C498.85 385.77 500.77 383.16 503.53 381.24C506.35 379.32 509.62 378.36 513.34 378.36C516.64 378.36 519.34 379.02 521.44 380.34C523.6 381.6 525.22 383.52 526.3 386.1C527.38 388.62 527.92 391.86 527.92 395.82V419.4C527.92 420.78 527.56 421.83 526.84 422.55C526.12 423.27 525.13 423.63 523.87 423.63C522.55 423.63 521.53 423.27 520.81 422.55C520.09 421.83 519.73 420.78 519.73 419.4V396.18C519.73 392.34 519.07 389.52 517.75 387.72C516.43 385.92 514.21 385.02 511.09 385.02C507.67 385.02 504.94 386.22 502.9 388.62C500.92 390.96 499.93 394.2 499.93 398.34V419.4C499.93 420.78 499.57 421.83 498.85 422.55C498.19 423.27 497.2 423.63 495.88 423.63C494.56 423.63 493.54 423.27 492.82 422.55C492.1 421.83 491.74 420.78 491.74 419.4V396.18C491.74 392.34 491.08 389.52 489.76 387.72C488.44 385.92 486.22 385.02 483.1 385.02C479.68 385.02 476.95 386.22 474.91 388.62C472.93 390.96 471.94 394.2 471.94 398.34V419.4C471.94 422.22 470.56 423.63 467.8 423.63ZM554.14 423.45C552.88 423.45 551.89 423.06 551.17 422.28C550.45 421.5 550.09 420.42 550.09 419.04V383.13C550.09 381.69 550.45 380.61 551.17 379.89C551.89 379.11 552.88 378.72 554.14 378.72C555.46 378.72 556.48 379.11 557.2 379.89C557.92 380.61 558.28 381.69 558.28 383.13V419.04C558.28 420.42 557.92 421.5 557.2 422.28C556.54 423.06 555.52 423.45 554.14 423.45ZM554.14 369C552.52 369 551.23 368.58 550.27 367.74C549.37 366.84 548.92 365.67 548.92 364.23C548.92 362.67 549.37 361.5 550.27 360.72C551.23 359.88 552.52 359.46 554.14 359.46C555.88 359.46 557.17 359.88 558.01 360.72C558.91 361.5 559.36 362.67 559.36 364.23C559.36 365.67 558.91 366.84 558.01 367.74C557.17 368.58 555.88 369 554.14 369ZM584.497 423.63C583.237 423.63 582.247 423.27 581.527 422.55C580.807 421.83 580.447 420.78 580.447 419.4V382.68C580.447 381.3 580.807 380.28 581.527 379.62C582.247 378.9 583.237 378.54 584.497 378.54C585.757 378.54 586.717 378.9 587.377 379.62C588.097 380.28 588.457 381.3 588.457 382.68V390.06L587.467 388.71C588.727 385.29 590.767 382.71 593.587 380.97C596.467 379.23 599.737 378.36 603.397 378.36C606.937 378.36 609.847 378.99 612.127 380.25C614.407 381.51 616.117 383.43 617.257 386.01C618.397 388.59 618.967 391.86 618.967 395.82V419.4C618.967 420.78 618.607 421.83 617.887 422.55C617.227 423.27 616.237 423.63 614.917 423.63C613.597 423.63 612.577 423.27 611.857 422.55C611.137 421.83 610.777 420.78 610.777 419.4V396.27C610.777 392.37 610.027 389.52 608.527 387.72C607.027 385.92 604.627 385.02 601.327 385.02C597.487 385.02 594.397 386.22 592.057 388.62C589.777 390.96 588.637 394.14 588.637 398.16V419.4C588.637 422.22 587.257 423.63 584.497 423.63ZM657.691 423.81C653.851 423.81 650.461 422.91 647.521 421.11C644.641 419.25 642.391 416.61 640.771 413.19C639.151 409.71 638.341 405.66 638.341 401.04C638.341 396.36 639.121 392.34 640.681 388.98C642.301 385.56 644.551 382.95 647.431 381.15C650.371 379.29 653.791 378.36 657.691 378.36C661.591 378.36 664.951 379.35 667.771 381.33C670.591 383.25 672.481 385.83 673.441 389.07H672.451V363.06C672.451 361.68 672.781 360.66 673.441 360C674.161 359.28 675.181 358.92 676.501 358.92C677.821 358.92 678.841 359.28 679.561 360C680.281 360.66 680.641 361.68 680.641 363.06V419.4C680.641 420.78 680.281 421.83 679.561 422.55C678.841 423.27 677.821 423.63 676.501 423.63C675.241 423.63 674.251 423.27 673.531 422.55C672.811 421.83 672.451 420.78 672.451 419.4V411.21L673.441 412.83C672.541 416.19 670.651 418.86 667.771 420.84C664.951 422.82 661.591 423.81 657.691 423.81ZM659.581 417.33C662.221 417.33 664.501 416.7 666.421 415.44C668.401 414.18 669.901 412.35 670.921 409.95C672.001 407.55 672.541 404.58 672.541 401.04C672.541 395.76 671.371 391.74 669.031 388.98C666.691 386.22 663.541 384.84 659.581 384.84C657.001 384.84 654.721 385.47 652.741 386.73C650.821 387.93 649.321 389.73 648.241 392.13C647.161 394.53 646.621 397.5 646.621 401.04C646.621 406.32 647.791 410.37 650.131 413.19C652.531 415.95 655.681 417.33 659.581 417.33ZM717.893 423.81C715.193 423.81 712.463 423.51 709.703 422.91C707.003 422.25 704.453 421.14 702.053 419.58C701.393 419.16 700.913 418.65 700.613 418.05C700.373 417.39 700.283 416.76 700.343 416.16C700.463 415.5 700.733 414.93 701.153 414.45C701.573 413.97 702.083 413.7 702.683 413.64C703.343 413.52 704.033 413.67 704.753 414.09C707.093 415.41 709.343 416.34 711.503 416.88C713.723 417.42 715.913 417.69 718.073 417.69C721.373 417.69 723.863 417.09 725.543 415.89C727.223 414.69 728.063 413.1 728.063 411.12C728.063 409.44 727.493 408.15 726.353 407.25C725.273 406.29 723.563 405.57 721.223 405.09L712.853 403.38C709.133 402.54 706.313 401.16 704.393 399.24C702.533 397.26 701.603 394.74 701.603 391.68C701.603 388.98 702.323 386.64 703.763 384.66C705.263 382.62 707.333 381.06 709.973 379.98C712.613 378.9 715.643 378.36 719.063 378.36C721.703 378.36 724.193 378.72 726.533 379.44C728.933 380.1 731.093 381.12 733.013 382.5C733.733 382.92 734.183 383.46 734.363 384.12C734.603 384.72 734.633 385.35 734.453 386.01C734.333 386.61 734.063 387.12 733.643 387.54C733.223 387.96 732.683 388.23 732.023 388.35C731.363 388.41 730.643 388.23 729.863 387.81C728.123 386.61 726.323 385.77 724.463 385.29C722.663 384.75 720.863 384.48 719.063 384.48C715.823 384.48 713.363 385.11 711.683 386.37C710.063 387.63 709.253 389.28 709.253 391.32C709.253 392.88 709.733 394.17 710.693 395.19C711.713 396.21 713.303 396.96 715.463 397.44L723.833 399.15C727.733 399.99 730.673 401.34 732.653 403.2C734.633 405 735.623 407.46 735.623 410.58C735.623 414.66 734.003 417.9 730.763 420.3C727.583 422.64 723.293 423.81 717.893 423.81ZM759.329 439.83C758.069 439.83 757.079 439.47 756.359 438.75C755.639 438.03 755.279 437.01 755.279 435.69V382.68C755.279 381.3 755.639 380.28 756.359 379.62C757.079 378.9 758.069 378.54 759.329 378.54C760.649 378.54 761.639 378.9 762.299 379.62C763.019 380.28 763.379 381.3 763.379 382.68V390.87L762.389 389.25C763.349 385.95 765.239 383.31 768.059 381.33C770.879 379.35 774.269 378.36 778.229 378.36C782.129 378.36 785.519 379.29 788.399 381.15C791.279 382.95 793.529 385.56 795.149 388.98C796.769 392.34 797.579 396.36 797.579 401.04C797.579 405.66 796.769 409.71 795.149 413.19C793.589 416.61 791.339 419.25 788.399 421.11C785.519 422.91 782.129 423.81 778.229 423.81C774.329 423.81 770.969 422.82 768.149 420.84C765.329 418.86 763.439 416.25 762.479 413.01H763.469V435.69C763.469 437.01 763.109 438.03 762.389 438.75C761.669 439.47 760.649 439.83 759.329 439.83ZM776.339 417.33C778.919 417.33 781.169 416.7 783.089 415.44C785.069 414.18 786.599 412.35 787.679 409.95C788.759 407.55 789.299 404.58 789.299 401.04C789.299 395.76 788.129 391.74 785.789 388.98C783.449 386.22 780.299 384.84 776.339 384.84C773.699 384.84 771.389 385.47 769.409 386.73C767.489 387.93 765.989 389.73 764.909 392.13C763.889 394.53 763.379 397.5 763.379 401.04C763.379 406.32 764.549 410.37 766.889 413.19C769.229 415.95 772.379 417.33 776.339 417.33ZM830.871 423.81C826.371 423.81 822.951 422.49 820.611 419.85C818.271 417.15 817.101 413.28 817.101 408.24V363.06C817.101 361.68 817.461 360.66 818.181 360C818.901 359.28 819.891 358.92 821.151 358.92C822.471 358.92 823.491 359.28 824.211 360C824.931 360.66 825.291 361.68 825.291 363.06V407.61C825.291 410.73 825.921 413.07 827.181 414.63C828.501 416.13 830.361 416.88 832.761 416.88C833.301 416.88 833.781 416.88 834.201 416.88C834.621 416.82 835.041 416.76 835.461 416.7C836.121 416.64 836.601 416.82 836.901 417.24C837.201 417.66 837.351 418.5 837.351 419.76C837.351 420.9 837.081 421.8 836.541 422.46C836.061 423.06 835.251 423.45 834.111 423.63C833.571 423.69 833.031 423.72 832.491 423.72C831.951 423.78 831.411 423.81 830.871 423.81ZM857.222 423.45C855.962 423.45 854.972 423.06 854.252 422.28C853.532 421.5 853.172 420.42 853.172 419.04V383.13C853.172 381.69 853.532 380.61 854.252 379.89C854.972 379.11 855.962 378.72 857.222 378.72C858.542 378.72 859.562 379.11 860.282 379.89C861.002 380.61 861.362 381.69 861.362 383.13V419.04C861.362 420.42 861.002 421.5 860.282 422.28C859.622 423.06 858.602 423.45 857.222 423.45ZM857.222 369C855.602 369 854.312 368.58 853.352 367.74C852.452 366.84 852.002 365.67 852.002 364.23C852.002 362.67 852.452 361.5 853.352 360.72C854.312 359.88 855.602 359.46 857.222 359.46C858.962 359.46 860.252 359.88 861.092 360.72C861.992 361.5 862.442 362.67 862.442 364.23C862.442 365.67 861.992 366.84 861.092 367.74C860.252 368.58 858.962 369 857.222 369ZM901.709 423.81C898.169 423.81 895.199 423.18 892.799 421.92C890.459 420.66 888.689 418.83 887.489 416.43C886.349 414.03 885.779 411.09 885.779 407.61V385.47H880.019C878.939 385.47 878.099 385.2 877.499 384.66C876.899 384.06 876.599 383.28 876.599 382.32C876.599 381.3 876.899 380.52 877.499 379.98C878.099 379.44 878.939 379.17 880.019 379.17H885.779V369.36C885.779 367.98 886.139 366.96 886.859 366.3C887.579 365.58 888.599 365.22 889.919 365.22C891.239 365.22 892.229 365.58 892.889 366.3C893.609 366.96 893.969 367.98 893.969 369.36V379.17H904.859C905.999 379.17 906.869 379.44 907.469 379.98C908.069 380.52 908.369 381.3 908.369 382.32C908.369 383.28 908.069 384.06 907.469 384.66C906.869 385.2 905.999 385.47 904.859 385.47H893.969V406.89C893.969 410.19 894.659 412.68 896.039 414.36C897.419 416.04 899.699 416.88 902.879 416.88C904.019 416.88 904.979 416.79 905.759 416.61C906.539 416.37 907.229 416.25 907.829 416.25C908.369 416.19 908.819 416.37 909.179 416.79C909.599 417.21 909.809 417.99 909.809 419.13C909.809 419.97 909.659 420.75 909.359 421.47C909.119 422.13 908.609 422.58 907.829 422.82C907.109 423.06 906.149 423.27 904.949 423.45C903.749 423.69 902.669 423.81 901.709 423.81Z" fill="white"/>
<path d="M467.8 423.63C466.54 423.63 465.55 423.27 464.83 422.55C464.11 421.83 463.75 420.78 463.75 419.4V382.68C463.75 381.3 464.11 380.28 464.83 379.62C465.55 378.9 466.54 378.54 467.8 378.54C469.06 378.54 470.02 378.9 470.68 379.62C471.4 380.28 471.76 381.3 471.76 382.68V390.33L470.77 388.71C471.91 385.41 473.74 382.86 476.26 381.06C478.84 379.26 481.9 378.36 485.44 378.36C489.16 378.36 492.16 379.26 494.44 381.06C496.72 382.8 498.25 385.47 499.03 389.07H497.77C498.85 385.77 500.77 383.16 503.53 381.24C506.35 379.32 509.62 378.36 513.34 378.36C516.64 378.36 519.34 379.02 521.44 380.34C523.6 381.6 525.22 383.52 526.3 386.1C527.38 388.62 527.92 391.86 527.92 395.82V419.4C527.92 420.78 527.56 421.83 526.84 422.55C526.12 423.27 525.13 423.63 523.87 423.63C522.55 423.63 521.53 423.27 520.81 422.55C520.09 421.83 519.73 420.78 519.73 419.4V396.18C519.73 392.34 519.07 389.52 517.75 387.72C516.43 385.92 514.21 385.02 511.09 385.02C507.67 385.02 504.94 386.22 502.9 388.62C500.92 390.96 499.93 394.2 499.93 398.34V419.4C499.93 420.78 499.57 421.83 498.85 422.55C498.19 423.27 497.2 423.63 495.88 423.63C494.56 423.63 493.54 423.27 492.82 422.55C492.1 421.83 491.74 420.78 491.74 419.4V396.18C491.74 392.34 491.08 389.52 489.76 387.72C488.44 385.92 486.22 385.02 483.1 385.02C479.68 385.02 476.95 386.22 474.91 388.62C472.93 390.96 471.94 394.2 471.94 398.34V419.4C471.94 422.22 470.56 423.63 467.8 423.63ZM554.14 423.45C552.88 423.45 551.89 423.06 551.17 422.28C550.45 421.5 550.09 420.42 550.09 419.04V383.13C550.09 381.69 550.45 380.61 551.17 379.89C551.89 379.11 552.88 378.72 554.14 378.72C555.46 378.72 556.48 379.11 557.2 379.89C557.92 380.61 558.28 381.69 558.28 383.13V419.04C558.28 420.42 557.92 421.5 557.2 422.28C556.54 423.06 555.52 423.45 554.14 423.45ZM554.14 369C552.52 369 551.23 368.58 550.27 367.74C549.37 366.84 548.92 365.67 548.92 364.23C548.92 362.67 549.37 361.5 550.27 360.72C551.23 359.88 552.52 359.46 554.14 359.46C555.88 359.46 557.17 359.88 558.01 360.72C558.91 361.5 559.36 362.67 559.36 364.23C559.36 365.67 558.91 366.84 558.01 367.74C557.17 368.58 555.88 369 554.14 369ZM584.497 423.63C583.237 423.63 582.247 423.27 581.527 422.55C580.807 421.83 580.447 420.78 580.447 419.4V382.68C580.447 381.3 580.807 380.28 581.527 379.62C582.247 378.9 583.237 378.54 584.497 378.54C585.757 378.54 586.717 378.9 587.377 379.62C588.097 380.28 588.457 381.3 588.457 382.68V390.06L587.467 388.71C588.727 385.29 590.767 382.71 593.587 380.97C596.467 379.23 599.737 378.36 603.397 378.36C606.937 378.36 609.847 378.99 612.127 380.25C614.407 381.51 616.117 383.43 617.257 386.01C618.397 388.59 618.967 391.86 618.967 395.82V419.4C618.967 420.78 618.607 421.83 617.887 422.55C617.227 423.27 616.237 423.63 614.917 423.63C613.597 423.63 612.577 423.27 611.857 422.55C611.137 421.83 610.777 420.78 610.777 419.4V396.27C610.777 392.37 610.027 389.52 608.527 387.72C607.027 385.92 604.627 385.02 601.327 385.02C597.487 385.02 594.397 386.22 592.057 388.62C589.777 390.96 588.637 394.14 588.637 398.16V419.4C588.637 422.22 587.257 423.63 584.497 423.63ZM657.691 423.81C653.851 423.81 650.461 422.91 647.521 421.11C644.641 419.25 642.391 416.61 640.771 413.19C639.151 409.71 638.341 405.66 638.341 401.04C638.341 396.36 639.121 392.34 640.681 388.98C642.301 385.56 644.551 382.95 647.431 381.15C650.371 379.29 653.791 378.36 657.691 378.36C661.591 378.36 664.951 379.35 667.771 381.33C670.591 383.25 672.481 385.83 673.441 389.07H672.451V363.06C672.451 361.68 672.781 360.66 673.441 360C674.161 359.28 675.181 358.92 676.501 358.92C677.821 358.92 678.841 359.28 679.561 360C680.281 360.66 680.641 361.68 680.641 363.06V419.4C680.641 420.78 680.281 421.83 679.561 422.55C678.841 423.27 677.821 423.63 676.501 423.63C675.241 423.63 674.251 423.27 673.531 422.55C672.811 421.83 672.451 420.78 672.451 419.4V411.21L673.441 412.83C672.541 416.19 670.651 418.86 667.771 420.84C664.951 422.82 661.591 423.81 657.691 423.81ZM659.581 417.33C662.221 417.33 664.501 416.7 666.421 415.44C668.401 414.18 669.901 412.35 670.921 409.95C672.001 407.55 672.541 404.58 672.541 401.04C672.541 395.76 671.371 391.74 669.031 388.98C666.691 386.22 663.541 384.84 659.581 384.84C657.001 384.84 654.721 385.47 652.741 386.73C650.821 387.93 649.321 389.73 648.241 392.13C647.161 394.53 646.621 397.5 646.621 401.04C646.621 406.32 647.791 410.37 650.131 413.19C652.531 415.95 655.681 417.33 659.581 417.33ZM717.893 423.81C715.193 423.81 712.463 423.51 709.703 422.91C707.003 422.25 704.453 421.14 702.053 419.58C701.393 419.16 700.913 418.65 700.613 418.05C700.373 417.39 700.283 416.76 700.343 416.16C700.463 415.5 700.733 414.93 701.153 414.45C701.573 413.97 702.083 413.7 702.683 413.64C703.343 413.52 704.033 413.67 704.753 414.09C707.093 415.41 709.343 416.34 711.503 416.88C713.723 417.42 715.913 417.69 718.073 417.69C721.373 417.69 723.863 417.09 725.543 415.89C727.223 414.69 728.063 413.1 728.063 411.12C728.063 409.44 727.493 408.15 726.353 407.25C725.273 406.29 723.563 405.57 721.223 405.09L712.853 403.38C709.133 402.54 706.313 401.16 704.393 399.24C702.533 397.26 701.603 394.74 701.603 391.68C701.603 388.98 702.323 386.64 703.763 384.66C705.263 382.62 707.333 381.06 709.973 379.98C712.613 378.9 715.643 378.36 719.063 378.36C721.703 378.36 724.193 378.72 726.533 379.44C728.933 380.1 731.093 381.12 733.013 382.5C733.733 382.92 734.183 383.46 734.363 384.12C734.603 384.72 734.633 385.35 734.453 386.01C734.333 386.61 734.063 387.12 733.643 387.54C733.223 387.96 732.683 388.23 732.023 388.35C731.363 388.41 730.643 388.23 729.863 387.81C728.123 386.61 726.323 385.77 724.463 385.29C722.663 384.75 720.863 384.48 719.063 384.48C715.823 384.48 713.363 385.11 711.683 386.37C710.063 387.63 709.253 389.28 709.253 391.32C709.253 392.88 709.733 394.17 710.693 395.19C711.713 396.21 713.303 396.96 715.463 397.44L723.833 399.15C727.733 399.99 730.673 401.34 732.653 403.2C734.633 405 735.623 407.46 735.623 410.58C735.623 414.66 734.003 417.9 730.763 420.3C727.583 422.64 723.293 423.81 717.893 423.81ZM759.329 439.83C758.069 439.83 757.079 439.47 756.359 438.75C755.639 438.03 755.279 437.01 755.279 435.69V382.68C755.279 381.3 755.639 380.28 756.359 379.62C757.079 378.9 758.069 378.54 759.329 378.54C760.649 378.54 761.639 378.9 762.299 379.62C763.019 380.28 763.379 381.3 763.379 382.68V390.87L762.389 389.25C763.349 385.95 765.239 383.31 768.059 381.33C770.879 379.35 774.269 378.36 778.229 378.36C782.129 378.36 785.519 379.29 788.399 381.15C791.279 382.95 793.529 385.56 795.149 388.98C796.769 392.34 797.579 396.36 797.579 401.04C797.579 405.66 796.769 409.71 795.149 413.19C793.589 416.61 791.339 419.25 788.399 421.11C785.519 422.91 782.129 423.81 778.229 423.81C774.329 423.81 770.969 422.82 768.149 420.84C765.329 418.86 763.439 416.25 762.479 413.01H763.469V435.69C763.469 437.01 763.109 438.03 762.389 438.75C761.669 439.47 760.649 439.83 759.329 439.83ZM776.339 417.33C778.919 417.33 781.169 416.7 783.089 415.44C785.069 414.18 786.599 412.35 787.679 409.95C788.759 407.55 789.299 404.58 789.299 401.04C789.299 395.76 788.129 391.74 785.789 388.98C783.449 386.22 780.299 384.84 776.339 384.84C773.699 384.84 771.389 385.47 769.409 386.73C767.489 387.93 765.989 389.73 764.909 392.13C763.889 394.53 763.379 397.5 763.379 401.04C763.379 406.32 764.549 410.37 766.889 413.19C769.229 415.95 772.379 417.33 776.339 417.33ZM830.871 423.81C826.371 423.81 822.951 422.49 820.611 419.85C818.271 417.15 817.101 413.28 817.101 408.24V363.06C817.101 361.68 817.461 360.66 818.181 360C818.901 359.28 819.891 358.92 821.151 358.92C822.471 358.92 823.491 359.28 824.211 360C824.931 360.66 825.291 361.68 825.291 363.06V407.61C825.291 410.73 825.921 413.07 827.181 414.63C828.501 416.13 830.361 416.88 832.761 416.88C833.301 416.88 833.781 416.88 834.201 416.88C834.621 416.82 835.041 416.76 835.461 416.7C836.121 416.64 836.601 416.82 836.901 417.24C837.201 417.66 837.351 418.5 837.351 419.76C837.351 420.9 837.081 421.8 836.541 422.46C836.061 423.06 835.251 423.45 834.111 423.63C833.571 423.69 833.031 423.72 832.491 423.72C831.951 423.78 831.411 423.81 830.871 423.81ZM857.222 423.45C855.962 423.45 854.972 423.06 854.252 422.28C853.532 421.5 853.172 420.42 853.172 419.04V383.13C853.172 381.69 853.532 380.61 854.252 379.89C854.972 379.11 855.962 378.72 857.222 378.72C858.542 378.72 859.562 379.11 860.282 379.89C861.002 380.61 861.362 381.69 861.362 383.13V419.04C861.362 420.42 861.002 421.5 860.282 422.28C859.622 423.06 858.602 423.45 857.222 423.45ZM857.222 369C855.602 369 854.312 368.58 853.352 367.74C852.452 366.84 852.002 365.67 852.002 364.23C852.002 362.67 852.452 361.5 853.352 360.72C854.312 359.88 855.602 359.46 857.222 359.46C858.962 359.46 860.252 359.88 861.092 360.72C861.992 361.5 862.442 362.67 862.442 364.23C862.442 365.67 861.992 366.84 861.092 367.74C860.252 368.58 858.962 369 857.222 369ZM901.709 423.81C898.169 423.81 895.199 423.18 892.799 421.92C890.459 420.66 888.689 418.83 887.489 416.43C886.349 414.03 885.779 411.09 885.779 407.61V385.47H880.019C878.939 385.47 878.099 385.2 877.499 384.66C876.899 384.06 876.599 383.28 876.599 382.32C876.599 381.3 876.899 380.52 877.499 379.98C878.099 379.44 878.939 379.17 880.019 379.17H885.779V369.36C885.779 367.98 886.139 366.96 886.859 366.3C887.579 365.58 888.599 365.22 889.919 365.22C891.239 365.22 892.229 365.58 892.889 366.3C893.609 366.96 893.969 367.98 893.969 369.36V379.17H904.859C905.999 379.17 906.869 379.44 907.469 379.98C908.069 380.52 908.369 381.3 908.369 382.32C908.369 383.28 908.069 384.06 907.469 384.66C906.869 385.2 905.999 385.47 904.859 385.47H893.969V406.89C893.969 410.19 894.659 412.68 896.039 414.36C897.419 416.04 899.699 416.88 902.879 416.88C904.019 416.88 904.979 416.79 905.759 416.61C906.539 416.37 907.229 416.25 907.829 416.25C908.369 416.19 908.819 416.37 909.179 416.79C909.599 417.21 909.809 417.99 909.809 419.13C909.809 419.97 909.659 420.75 909.359 421.47C909.119 422.13 908.609 422.58 907.829 422.82C907.109 423.06 906.149 423.27 904.949 423.45C903.749 423.69 902.669 423.81 901.709 423.81Z" fill="white"/>
</svg>
